<svg id="Capa_1" enable-background="new 0 0 511.88 511.88" height="512" viewBox="0 0 511.88 511.88" width="512" xmlns="http://www.w3.org/2000/svg"><g><path d="m286.12 225.83c0-16.64-13.54-30.18-30.18-30.18-16.504 0-30.18 13.381-30.18 30.24 63.23 0 60.36.04 60.36-.06z"/><path d="m225.76 301.17c.03 16.62 13.56 30.13 30.18 30.13s30.15-13.51 30.18-30.13v-45.28h-60.36z"/><path d="m240.94 466.23v30.65c0 8.29 6.72 15 15 15s15-6.71 15-15v-30.65c-9.99.707-20.008.707-30 0z"/><path d="m270.94 45.65v-30.65c0-8.29-6.72-15-15-15s-15 6.71-15 15v30.65c9.99-.707 20.008-.707 30 0z"/><path d="m45.65 240.94h-30.65c-8.29 0-15 6.72-15 15s6.71 15 15 15h30.65c-.701-9.913-.712-19.928 0-30z"/><path d="m496.88 240.94h-30.65c.698 9.873.715 19.888 0 30h30.65c8.29 0 15-6.72 15-15s-6.71-15-15-15z"/><path d="m421.65 255.94c0-8.28 6.71-15 15-15h29.58c-7.34-104.48-90.81-187.95-195.29-195.29v29.58c0 8.29-6.72 15-15 15s-15-6.71-15-15v-29.58c-104.48 7.34-187.95 90.81-195.29 195.29h29.58c8.29 0 15 6.72 15 15s-6.71 15-15 15h-29.58c7.34 104.48 90.81 187.95 195.29 195.29v-29.58c0-8.29 6.72-15 15-15s15 6.71 15 15v29.58c104.48-7.34 187.95-90.81 195.29-195.29h-29.58c-8.29 0-15-6.72-15-15zm-60.29 90.3c-5.5 0-10.8-3.04-13.42-8.29l-10.92-21.83h-22.8c-6.68 25.95-30.28 45.18-58.28 45.18s-51.6-19.23-58.28-45.18h-22.8l-10.92 21.83c-2.62 5.25-7.92 8.29-13.42 8.29-11.07 0-18.41-11.7-13.41-21.71l15.06-30.12c2.54-5.08 7.74-8.29 13.42-8.29h30.17v-30.23h-30.17c-5.68 0-10.88-3.21-13.42-8.3l-15.06-30.11c-3.7-7.41-.7-16.42 6.71-20.13 7.41-3.7 16.42-.7 20.12 6.71l10.92 21.83c22.41 0 20.9.04 20.9-.06 0-15.51 5.98-30.69 17.35-42.23l-15.21-25.35c-4.26-7.11-1.96-16.32 5.14-20.58 7.1-4.27 16.32-1.96 20.58 5.14l15.2 25.33c11.27-3.36 23.23-3.28 34.24 0l15.2-25.33c4.26-7.1 13.47-9.41 20.58-5.14 7.1 4.26 9.4 13.47 5.14 20.58l-15.21 25.35c10.72 10.87 17.35 25.79 17.35 42.23 0 .1-1.6.06 20.9.06l10.92-21.83c3.7-7.41 12.71-10.41 20.12-6.71 7.41 3.71 10.41 12.72 6.71 20.13l-15.06 30.11c-2.54 5.09-7.74 8.3-13.42 8.3h-30.17v30.23h30.17c5.68 0 10.88 3.21 13.42 8.29l15.06 30.12c5 10.02-2.34 21.71-13.41 21.71z"/></g></svg>