<svg width="32" height="32" viewBox="0 0 32 32" fill="none" xmlns="http://www.w3.org/2000/svg">
<g clip-path="url(#clip0)">
<path d="M28.6667 5.33325H3.33331C1.496 5.33325 0 6.82925 0 8.66663V23.3333C0 25.1706 1.496 26.6666 3.33331 26.6666H28.6666C30.5039 26.6666 31.9999 25.1706 31.9999 23.3333V8.66663C32 6.82925 30.504 5.33325 28.6667 5.33325ZM30.6667 23.3333C30.6667 24.4359 29.7694 25.3333 28.6667 25.3333H3.33331C2.23063 25.3333 1.33331 24.4359 1.33331 23.3333V8.66663C1.33331 7.56394 2.23063 6.66663 3.33331 6.66663H28.6666C29.7693 6.66663 30.6666 7.56394 30.6666 8.66663V23.3333H30.6667Z" fill="#214D71"/>
<path d="M31.3333 9.33325H0.666687C0.298687 9.33325 0 9.63194 0 9.99994V13.9999C0 14.3679 0.298687 14.6666 0.666687 14.6666H31.3334C31.7014 14.6666 32.0001 14.3679 32.0001 13.9999V9.99994C32 9.63194 31.7013 9.33325 31.3333 9.33325ZM30.6667 13.3333H1.33331V10.6666H30.6666V13.3333H30.6667Z" fill="#214D71"/>
<path d="M12.6667 18.6666H4.66669C4.29869 18.6666 4 18.9653 4 19.3333C4 19.7013 4.29869 19.9999 4.66669 19.9999H12.6667C13.0347 19.9999 13.3334 19.7013 13.3334 19.3333C13.3334 18.9653 13.0347 18.6666 12.6667 18.6666Z" fill="#214D71"/>
<path d="M12.6667 21.3334H4.66669C4.29869 21.3334 4 21.6321 4 22.0001C4 22.3681 4.29869 22.6667 4.66669 22.6667H12.6667C13.0347 22.6667 13.3334 22.3681 13.3334 22.0001C13.3333 21.6321 13.0347 21.3334 12.6667 21.3334Z" fill="#214D71"/>
<path d="M25.9999 17.3334H24.6666C23.5639 17.3334 22.6666 18.2307 22.6666 19.3334V20.6667C22.6666 21.7694 23.5639 22.6667 24.6666 22.6667H25.9999C27.1026 22.6667 27.9999 21.7694 27.9999 20.6667V19.3334C27.9999 18.2307 27.1026 17.3334 25.9999 17.3334ZM26.6666 20.6667C26.6666 21.0347 26.3679 21.3334 25.9999 21.3334H24.6666C24.2986 21.3334 23.9999 21.0347 23.9999 20.6667V19.3334C23.9999 18.9654 24.2986 18.6667 24.6666 18.6667H25.9999C26.3679 18.6667 26.6666 18.9654 26.6666 19.3334V20.6667Z" fill="#214D71"/>
</g>
<defs>
<clipPath id="clip0">
<rect width="32" height="32" fill="white"/>
</clipPath>
</defs>
</svg>
