<svg width="32" height="32" viewBox="0 0 32 32" fill="none" xmlns="http://www.w3.org/2000/svg">
<path d="M29.5 5H23.937L21.3035 2.3665C21.2097 2.27276 21.0826 2.22011 20.95 2.22011C20.8174 2.22011 20.6903 2.27276 20.5965 2.3665L18.8555 4.1075C18.736 4.054 18.6175 4.0075 18.5 3.9605V1.5C18.5 1.36739 18.4473 1.24021 18.3536 1.14645C18.2598 1.05268 18.1326 1 18 1H14C13.8674 1 13.7402 1.05268 13.6464 1.14645C13.5527 1.24021 13.5 1.36739 13.5 1.5V3.9605C13.3825 4.0055 13.264 4.054 13.1445 4.1075L11.4035 2.3665C11.308 2.27616 11.1815 2.22583 11.05 2.22583C10.9185 2.22583 10.792 2.27616 10.6965 2.3665L8.063 5H2.5C2.10218 5 1.72064 5.15804 1.43934 5.43934C1.15804 5.72064 1 6.10218 1 6.5V23.5C1 23.8978 1.15804 24.2794 1.43934 24.5607C1.72064 24.842 2.10218 25 2.5 25H12.5V27H10.5C10.1022 27 9.72064 27.158 9.43934 27.4393C9.15804 27.7206 9 28.1022 9 28.5V30.5C9 30.6326 9.05268 30.7598 9.14645 30.8536C9.24021 30.9473 9.36739 31 9.5 31H22.5C22.6326 31 22.7598 30.9473 22.8536 30.8536C22.9473 30.7598 23 30.6326 23 30.5V28.5C23 28.1022 22.842 27.7206 22.5607 27.4393C22.2794 27.158 21.8978 27 21.5 27H19.5V25H29.5C29.8978 25 30.2794 24.842 30.5607 24.5607C30.842 24.2794 31 23.8978 31 23.5V6.5C31 6.10218 30.842 5.72064 30.5607 5.43934C30.2794 5.15804 29.8978 5 29.5 5ZM11.05 3.427L12.6865 5.0635C12.7607 5.13764 12.8564 5.18657 12.9599 5.20335C13.0635 5.22013 13.1697 5.20391 13.2635 5.157C13.5491 5.01232 13.8455 4.89012 14.15 4.7915C14.2514 4.7596 14.34 4.69621 14.403 4.61052C14.4659 4.52484 14.4999 4.42132 14.5 4.315V2H17.5V4.315C17.5001 4.42132 17.5341 4.52484 17.597 4.61052C17.66 4.69621 17.7486 4.7596 17.85 4.7915C18.1551 4.89005 18.452 5.01225 18.738 5.157C18.8318 5.20391 18.938 5.22013 19.0416 5.20335C19.1451 5.18657 19.2408 5.13764 19.315 5.0635L20.95 3.427L23.073 5.55L21.9765 6.6465L21.4365 7.1865C21.3624 7.26071 21.3134 7.35636 21.2967 7.45991C21.2799 7.56347 21.2961 7.66967 21.343 7.7635C21.4877 8.04955 21.6099 8.34645 21.7085 8.6515C21.7404 8.75292 21.8038 8.84154 21.8895 8.90447C21.9752 8.96741 22.0787 9.0014 22.185 9.0015H24.5V12.0015H19.7105C19.9549 11.3944 20.0467 10.7366 19.9777 10.0858C19.9087 9.43501 19.6811 8.81107 19.3148 8.26872C18.9485 7.72637 18.4548 7.28218 17.8768 6.9751C17.2989 6.66803 16.6545 6.50745 16 6.50745C15.3455 6.50745 14.7011 6.66803 14.1232 6.9751C13.5452 7.28218 13.0515 7.72637 12.6852 8.26872C12.3189 8.81107 12.0913 9.43501 12.0223 10.0858C11.9533 10.7366 12.0451 11.3944 12.2895 12.0015H7.5V9H9.815C9.92132 8.9999 10.0248 8.96591 10.1105 8.90297C10.1962 8.84003 10.2596 8.75142 10.2915 8.65C10.3901 8.34495 10.5123 8.04805 10.657 7.762C10.7039 7.66817 10.7201 7.56197 10.7033 7.45841C10.6866 7.35486 10.6376 7.25921 10.5635 7.185L10.0235 6.645L8.927 5.55L11.05 3.427ZM9.6075 7.645C9.554 7.7645 9.5075 7.8825 9.4605 8H7C6.86739 8 6.74021 8.05268 6.64645 8.14645C6.55268 8.24021 6.5 8.36739 6.5 8.5V12H5C4.86739 12 4.74021 12.0527 4.64645 12.1464C4.55268 12.2402 4.5 12.3674 4.5 12.5C4.5 12.6326 4.55268 12.7598 4.64645 12.8536C4.74021 12.9473 4.86739 13 5 13H27C27.1326 13 27.2598 12.9473 27.3536 12.8536C27.4473 12.7598 27.5 12.6326 27.5 12.5C27.5 12.3674 27.4473 12.2402 27.3536 12.1464C27.2598 12.0527 27.1326 12 27 12H25.5V8.5C25.5 8.36739 25.4473 8.24021 25.3536 8.14645C25.2598 8.05268 25.1326 8 25 8H22.5395C22.4945 7.8825 22.446 7.7645 22.3925 7.645L22.5375 7.5H28.5V19.5H3.5V7.5H9.4625L9.6075 7.645ZM13 10.5C13 9.70435 13.3161 8.94129 13.8787 8.37868C14.4413 7.81607 15.2044 7.5 16 7.5C16.7956 7.5 17.5587 7.81607 18.1213 8.37868C18.6839 8.94129 19 9.70435 19 10.5C18.9993 11.0279 18.8571 11.5459 18.588 12H13.412C13.1429 11.5459 13.0007 11.0279 13 10.5ZM2.5 6H7.963L8.463 6.5H3C2.86739 6.5 2.74021 6.55268 2.64645 6.64645C2.55268 6.74021 2.5 6.86739 2.5 7V20C2.5 20.1326 2.55268 20.2598 2.64645 20.3536C2.74021 20.4473 2.86739 20.5 3 20.5H29C29.1326 20.5 29.2598 20.4473 29.3536 20.3536C29.4473 20.2598 29.5 20.1326 29.5 20V7C29.5 6.86739 29.4473 6.74021 29.3536 6.64645C29.2598 6.55268 29.1326 6.5 29 6.5H23.537L24.037 6H29.5C29.6326 6 29.7598 6.05268 29.8536 6.14645C29.9473 6.24021 30 6.36739 30 6.5V21H2V6.5C2 6.36739 2.05268 6.24021 2.14645 6.14645C2.24021 6.05268 2.36739 6 2.5 6ZM21.5 28C21.6326 28 21.7598 28.0527 21.8536 28.1464C21.9473 28.2402 22 28.3674 22 28.5V30H10V28.5C10 28.3674 10.0527 28.2402 10.1464 28.1464C10.2402 28.0527 10.3674 28 10.5 28H21.5ZM18.5 27H13.5V25H18.5V27ZM29.5 24H2.5C2.36739 24 2.24021 23.9473 2.14645 23.8536C2.05268 23.7598 2 23.6326 2 23.5V22H30V23.5C30 23.6326 29.9473 23.7598 29.8536 23.8536C29.7598 23.9473 29.6326 24 29.5 24Z" fill="#214D71"/>
<path d="M27.5 22.5H26.5C26.3674 22.5 26.2402 22.5527 26.1464 22.6464C26.0527 22.7402 26 22.8674 26 23C26 23.1326 26.0527 23.2598 26.1464 23.3536C26.2402 23.4473 26.3674 23.5 26.5 23.5H27.5C27.6326 23.5 27.7598 23.4473 27.8536 23.3536C27.9473 23.2598 28 23.1326 28 23C28 22.8674 27.9473 22.7402 27.8536 22.6464C27.7598 22.5527 27.6326 22.5 27.5 22.5Z" fill="#214D71"/>
<path d="M5 15.5H7.592C7.69382 15.7923 7.88408 16.0456 8.13637 16.2249C8.38867 16.4041 8.6905 16.5005 9 16.5005C9.3095 16.5005 9.61133 16.4041 9.86363 16.2249C10.1159 16.0456 10.3062 15.7923 10.408 15.5H27C27.1326 15.5 27.2598 15.4473 27.3536 15.3535C27.4473 15.2598 27.5 15.1326 27.5 15C27.5 14.8674 27.4473 14.7402 27.3536 14.6464C27.2598 14.5527 27.1326 14.5 27 14.5H10.408C10.3062 14.2077 10.1159 13.9544 9.86363 13.7751C9.61133 13.5958 9.3095 13.4995 9 13.4995C8.6905 13.4995 8.38867 13.5958 8.13637 13.7751C7.88408 13.9544 7.69382 14.2077 7.592 14.5H5C4.86739 14.5 4.74021 14.5527 4.64645 14.6464C4.55268 14.7402 4.5 14.8674 4.5 15C4.5 15.1326 4.55268 15.2598 4.64645 15.3535C4.74021 15.4473 4.86739 15.5 5 15.5ZM9 14.5C9.09889 14.5 9.19556 14.5293 9.27779 14.5842C9.36001 14.6392 9.4241 14.7173 9.46194 14.8086C9.49978 14.9 9.50969 15.0005 9.49039 15.0975C9.4711 15.1945 9.42348 15.2836 9.35355 15.3535C9.28363 15.4235 9.19454 15.4711 9.09755 15.4904C9.00056 15.5097 8.90002 15.4998 8.80866 15.4619C8.7173 15.4241 8.63921 15.36 8.58426 15.2778C8.52932 15.1955 8.5 15.0989 8.5 15C8.5 14.8674 8.55268 14.7402 8.64645 14.6464C8.74021 14.5527 8.86739 14.5 9 14.5Z" fill="#214D71"/>
<path d="M5 18H11.092C11.1938 18.2923 11.3841 18.5456 11.6364 18.7249C11.8887 18.9041 12.1905 19.0005 12.5 19.0005C12.8095 19.0005 13.1113 18.9041 13.3636 18.7249C13.6159 18.5456 13.8062 18.2923 13.908 18H27C27.1326 18 27.2598 17.9473 27.3536 17.8535C27.4473 17.7598 27.5 17.6326 27.5 17.5C27.5 17.3674 27.4473 17.2402 27.3536 17.1464C27.2598 17.0527 27.1326 17 27 17H13.908C13.8062 16.7077 13.6159 16.4544 13.3636 16.2751C13.1113 16.0958 12.8095 15.9995 12.5 15.9995C12.1905 15.9995 11.8887 16.0958 11.6364 16.2751C11.3841 16.4544 11.1938 16.7077 11.092 17H5C4.86739 17 4.74021 17.0527 4.64645 17.1464C4.55268 17.2402 4.5 17.3674 4.5 17.5C4.5 17.6326 4.55268 17.7598 4.64645 17.8535C4.74021 17.9473 4.86739 18 5 18ZM12.5 17C12.5989 17 12.6956 17.0293 12.7778 17.0842C12.86 17.1392 12.9241 17.2173 12.9619 17.3086C12.9998 17.4 13.0097 17.5005 12.9904 17.5975C12.9711 17.6945 12.9235 17.7836 12.8536 17.8535C12.7836 17.9235 12.6945 17.9711 12.5975 17.9904C12.5006 18.0097 12.4 17.9998 12.3087 17.9619C12.2173 17.9241 12.1392 17.86 12.0843 17.7778C12.0293 17.6955 12 17.5989 12 17.5C12 17.3674 12.0527 17.2402 12.1464 17.1464C12.2402 17.0527 12.3674 17 12.5 17Z" fill="#214D71"/>
</svg>
