<svg width="18" height="20" viewBox="0 0 18 20" fill="none" xmlns="http://www.w3.org/2000/svg">
<path d="M16.4192 3.43042H1.58036C1.11044 3.43042 0.729492 3.85369 0.729492 4.37583V15.6247C0.729492 16.1469 1.11044 16.5701 1.58036 16.5701H16.4192C16.8891 16.5701 17.27 16.1469 17.27 15.6247V4.37583C17.27 3.85369 16.8891 3.43042 16.4192 3.43042Z" fill="#FCD462"/>
<path d="M17.27 4.37562V15.6243C17.27 15.8751 17.1803 16.1158 17.0207 16.2932C16.861 16.4705 16.6445 16.5702 16.4187 16.5702H1.58085C1.36524 16.5701 1.1577 16.4791 1.00013 16.3155C0.84257 16.152 0.746718 15.9281 0.731934 15.6891C0.743985 15.6914 0.756207 15.6923 0.76842 15.6918H15.6087C15.8345 15.6918 16.051 15.5922 16.2107 15.4148C16.3703 15.2374 16.46 14.9968 16.46 14.7459V3.49724C16.4604 3.47558 16.4596 3.45392 16.4576 3.43237C16.6764 3.4429 16.883 3.54689 17.0344 3.72265C17.1858 3.89841 17.2702 4.13234 17.27 4.37562Z" fill="#F7BE56"/>
<path d="M8.99974 10.1353C8.76417 10.1359 8.53442 10.0541 8.34298 9.90156L0.899739 3.98857C0.886443 3.97838 0.875107 3.96535 0.866393 3.95024C0.857678 3.93513 0.851759 3.91824 0.848981 3.90057C0.846203 3.88289 0.846621 3.86477 0.850212 3.84728C0.853803 3.82978 0.860495 3.81325 0.869896 3.79866C0.879297 3.78407 0.89122 3.7717 0.904969 3.76229C0.918717 3.75287 0.934016 3.74659 0.949973 3.74381C0.965929 3.74104 0.982223 3.74182 0.997905 3.74612C1.01359 3.75041 1.02834 3.75814 1.04131 3.76884L8.48528 9.68075C8.63561 9.80005 8.81573 9.86419 9.00047 9.86419C9.18521 9.86419 9.36533 9.80005 9.51566 9.68075L16.9572 3.76857C16.9834 3.74845 17.0158 3.74059 17.0472 3.74669C17.0786 3.75278 17.1066 3.77234 17.1251 3.80115C17.1437 3.82996 17.1513 3.86571 17.1464 3.90072C17.1415 3.93572 17.1244 3.96717 17.0988 3.9883L9.6565 9.90048C9.46482 10.0526 9.23529 10.1347 8.99974 10.1353Z" fill="#323C6B"/>
<path d="M14.5133 17.5161H12.1011C12.0689 17.5161 12.0379 17.5019 12.0151 17.4765C11.9923 17.4512 11.9795 17.4168 11.9795 17.381C11.9795 17.3451 11.9923 17.3108 12.0151 17.2854C12.0379 17.2601 12.0689 17.2458 12.1011 17.2458H14.5133C14.5456 17.2458 14.5765 17.2601 14.5993 17.2854C14.6222 17.3108 14.635 17.3451 14.635 17.381C14.635 17.4168 14.6222 17.4512 14.5993 17.4765C14.5765 17.5019 14.5456 17.5161 14.5133 17.5161Z" fill="#323C6B"/>
<path d="M11.4398 17.5161H11.3257C11.2935 17.5161 11.2625 17.5019 11.2397 17.4765C11.2169 17.4512 11.2041 17.4168 11.2041 17.381C11.2041 17.3451 11.2169 17.3108 11.2397 17.2854C11.2625 17.2601 11.2935 17.2458 11.3257 17.2458H11.4398C11.4721 17.2458 11.503 17.2601 11.5258 17.2854C11.5486 17.3108 11.5614 17.3451 11.5614 17.381C11.5614 17.4168 11.5486 17.4512 11.5258 17.4765C11.503 17.5019 11.4721 17.5161 11.4398 17.5161Z" fill="#323C6B"/>
<path d="M3.91194 2.7544H1.93559C1.90333 2.7544 1.8724 2.74016 1.84959 2.71482C1.82678 2.68948 1.81396 2.6551 1.81396 2.61926C1.81396 2.58342 1.82678 2.54905 1.84959 2.52371C1.8724 2.49837 1.90333 2.48413 1.93559 2.48413H3.91194C3.9442 2.48413 3.97513 2.49837 3.99794 2.52371C4.02075 2.54905 4.03356 2.58342 4.03356 2.61926C4.03356 2.6551 4.02075 2.68948 3.99794 2.71482C3.97513 2.74016 3.9442 2.7544 3.91194 2.7544Z" fill="#323C6B"/>
<path d="M4.53007 2.7544H4.39823C4.36598 2.7544 4.33504 2.74016 4.31223 2.71482C4.28942 2.68948 4.27661 2.6551 4.27661 2.61926C4.27661 2.58342 4.28942 2.54905 4.31223 2.52371C4.33504 2.49837 4.36598 2.48413 4.39823 2.48413H4.53007C4.56232 2.48413 4.59326 2.49837 4.61607 2.52371C4.63888 2.54905 4.65169 2.58342 4.65169 2.61926C4.65169 2.6551 4.63888 2.68948 4.61607 2.71482C4.59326 2.74016 4.56232 2.7544 4.53007 2.7544Z" fill="#323C6B"/>
<path d="M16.4187 16.7052H1.58088C1.32283 16.7052 1.07536 16.5913 0.892887 16.3886C0.71042 16.1859 0.60791 15.9109 0.60791 15.6242V4.37551C0.60791 4.08879 0.71042 3.81382 0.892887 3.61107C1.07536 3.40833 1.32283 3.29443 1.58088 3.29443H16.4187C16.6768 3.29443 16.9243 3.40833 17.1067 3.61107C17.2892 3.81382 17.3917 4.08879 17.3917 4.37551V15.6247C17.3916 15.9113 17.289 16.1862 17.1065 16.3888C16.9241 16.5914 16.6767 16.7052 16.4187 16.7052ZM1.58088 3.56524C1.38735 3.56524 1.20174 3.65067 1.06489 3.80273C0.928035 3.95478 0.851153 4.16101 0.851153 4.37606V15.6247C0.851153 15.8397 0.928035 16.046 1.06489 16.198C1.20174 16.3501 1.38735 16.4355 1.58088 16.4355H16.4187C16.6123 16.4355 16.7979 16.3501 16.9347 16.198C17.0716 16.046 17.1485 15.8397 17.1485 15.6247V4.37551C17.1485 4.16047 17.0716 3.95424 16.9347 3.80218C16.7979 3.65013 16.6123 3.5647 16.4187 3.5647L1.58088 3.56524Z" fill="#323C6B"/>
<path d="M5.42404 6.27712L6.81053 7.41576C6.84162 7.44142 6.86227 7.47976 6.86793 7.52233C6.87358 7.56491 6.86379 7.60824 6.84069 7.64279C6.8176 7.67734 6.7831 7.70028 6.74478 7.70656C6.70646 7.71285 6.66746 7.70196 6.63637 7.6763L5.24988 6.53766C5.23449 6.52495 5.22149 6.509 5.21164 6.49071C5.2018 6.47243 5.19528 6.45217 5.19248 6.43109C5.18968 6.41 5.19065 6.38852 5.19532 6.36785C5.19999 6.34718 5.20828 6.32774 5.21972 6.31063C5.23115 6.29353 5.24551 6.27909 5.26197 6.26815C5.27843 6.2572 5.29666 6.24997 5.31563 6.24686C5.33461 6.24374 5.35395 6.24482 5.37255 6.25001C5.39115 6.2552 5.40865 6.26441 5.42404 6.27712Z" fill="white"/>
<path d="M4.95261 5.88137L5.02559 5.9411C5.04098 5.9538 5.05398 5.96975 5.06383 5.98804C5.07367 6.00632 5.08018 6.02658 5.08299 6.04767C5.08579 6.06875 5.08482 6.09023 5.08015 6.1109C5.07548 6.13157 5.06718 6.15101 5.05575 6.16812C5.04431 6.18522 5.02996 6.19966 5.0135 6.2106C4.99704 6.22155 4.97881 6.22878 4.95983 6.23189C4.94086 6.235 4.92152 6.23393 4.90292 6.22874C4.88432 6.22355 4.86682 6.21434 4.85142 6.20163L4.77845 6.1419C4.74735 6.11624 4.72671 6.07791 4.72105 6.03533C4.71539 5.99276 4.72519 5.94943 4.74828 5.91488C4.77138 5.88033 4.80588 5.85739 4.8442 5.85111C4.88252 5.84482 4.92152 5.85571 4.95261 5.88137Z" fill="white"/>
</svg>
