<svg width="18" height="18" viewBox="0 0 18 18" fill="none" xmlns="http://www.w3.org/2000/svg">
<g clip-path="url(#clip0)">
<path d="M16.1494 3.53813L12.7744 0.163134C12.6682 0.057841 12.5245 -0.000834775 12.375 8.97536e-06H3.375C2.44301 8.97536e-06 1.6875 0.755517 1.6875 1.68751V16.3125C1.6875 17.2445 2.44301 18 3.375 18H14.625C15.557 18 16.3125 17.2445 16.3125 16.3125V3.93751C16.3134 3.78799 16.2547 3.64431 16.1494 3.53813ZM15.1875 16.3125C15.1875 16.6232 14.9357 16.875 14.625 16.875H3.375C3.06432 16.875 2.8125 16.6232 2.8125 16.3125V1.68751C2.8125 1.37683 3.06432 1.12501 3.375 1.12501H11.8125V3.37501C11.8125 3.99633 12.3162 4.50001 12.9375 4.50001H15.1875V16.3125Z" fill="white"/>
<path d="M14.0625 13.5H12.9375V14.625H14.0625V13.5Z" fill="white"/>
<path d="M14.0625 7.875H3.9375V9H14.0625V7.875Z" fill="white"/>
<path d="M14.0625 10.6875H3.9375V11.8125H14.0625V10.6875Z" fill="white"/>
<path d="M11.8125 13.5H3.9375V14.625H11.8125V13.5Z" fill="white"/>
</g>
<defs>
<clipPath id="clip0">
<rect width="18" height="18" fill="white"/>
</clipPath>
</defs>
</svg>
