<svg width="24" height="24" viewBox="0 0 24 24" fill="none" xmlns="http://www.w3.org/2000/svg">
<path d="M2.35158 21.2685H21.6483C22.934 21.2685 23.9799 20.2225 23.9799 18.9369V6.91089C23.9799 5.62524 22.934 4.57933 21.6483 4.57933H12.9859L12.5811 3.88635C12.376 3.53529 12.0811 3.24271 11.7285 3.04031C11.3758 2.83795 10.9745 2.73096 10.5679 2.73096H2.35158C1.06594 2.73096 0.0200195 3.77691 0.0200195 5.06252V6.29732V18.2545V18.9369C0.0200195 20.2225 1.06598 21.2685 2.35158 21.2685ZM1.73801 18.2545V6.29736V5.06256C1.73801 4.72369 2.01272 4.44899 2.35158 4.44899H10.5679C10.786 4.44899 10.9877 4.56473 11.0977 4.75305L11.8223 5.9933C11.9323 6.18158 12.134 6.29736 12.3521 6.29736H21.6483C21.9872 6.29736 22.2619 6.57206 22.2619 6.91093V18.9369C22.2619 19.2757 21.9872 19.5504 21.6483 19.5504H2.35158C2.01272 19.5504 1.73801 19.2757 1.73801 18.9369V18.2545Z" fill="white"/>
<path d="M21.6484 21.2885H2.35162C1.05494 21.2885 0 20.2336 0 18.9369V5.06255C0 3.76588 1.05494 2.71094 2.35162 2.71094H10.568C10.978 2.71094 11.3828 2.81881 11.7385 3.02298C12.0942 3.22714 12.3915 3.52217 12.5984 3.87628L12.9975 4.55931H21.6483C22.945 4.55931 24 5.61424 24 6.91092V18.9369C24 20.2336 22.9451 21.2885 21.6484 21.2885ZM2.35162 2.751C1.07704 2.751 0.0401026 3.78797 0.0401026 5.06255V18.9369C0.0401026 20.2115 1.07704 21.2484 2.35162 21.2484H21.6484C22.9229 21.2484 23.9599 20.2115 23.9599 18.9369V6.91092C23.9599 5.63634 22.923 4.59941 21.6484 4.59941H12.9745L12.5638 3.89653C12.3605 3.54848 12.0682 3.25842 11.7185 3.05774C11.3689 2.85711 10.9711 2.75104 10.568 2.75104H2.35162V2.751ZM21.6484 19.5705H2.35162C2.00224 19.5705 1.718 19.2863 1.718 18.9369V5.06255C1.718 4.71318 2.00224 4.42893 2.35162 4.42893H10.568C10.7923 4.42893 11.0019 4.54924 11.115 4.74294L11.8397 5.98315C11.9456 6.16457 12.142 6.27726 12.3521 6.27726H21.6484C21.9978 6.27726 22.282 6.56151 22.282 6.91088V18.9368C22.282 19.2863 21.9978 19.5705 21.6484 19.5705ZM2.35162 4.46904C2.02434 4.46904 1.7581 4.73528 1.7581 5.06255V18.9369C1.7581 19.2641 2.02434 19.5304 2.35162 19.5304H21.6484C21.9757 19.5304 22.2419 19.2641 22.2419 18.9369V6.91092C22.2419 6.58364 21.9757 6.3174 21.6484 6.3174H12.3522C12.1278 6.3174 11.9182 6.1971 11.805 6.0034L11.0804 4.76315C10.9745 4.58172 10.7781 4.46904 10.568 4.46904H2.35162Z" fill="white"/>
</svg>
