<svg width="32" height="32" viewBox="0 0 32 32" fill="none" xmlns="http://www.w3.org/2000/svg">
<path d="M27.6755 14.7812C28.6126 14.1227 29.2331 13.0273 29.2331 11.7927C29.2331 9.77288 27.5995 8.13932 25.5797 8.13932C23.56 8.13932 21.9264 9.77288 21.9264 11.7927C21.9264 13.0273 22.5406 14.1227 23.484 14.7812C22.6799 15.0598 21.9454 15.4903 21.3249 16.0475C20.4701 15.3194 19.4634 14.7622 18.3617 14.4329C19.6977 13.6225 20.5968 12.1472 20.5968 10.4694C20.5968 7.91138 18.5263 5.84094 15.9683 5.84094C13.4104 5.84094 11.3399 7.91771 11.3399 10.4694C11.3399 12.1472 12.2327 13.6225 13.575 14.4329C12.486 14.7622 11.4919 15.313 10.6435 16.0285C10.023 15.484 9.30115 15.0598 8.5097 14.7875C9.44678 14.129 10.0673 13.0337 10.0673 11.799C10.0673 9.77921 8.43372 8.14565 6.41393 8.14565C4.39414 8.14565 2.76059 9.77921 2.76059 11.799C2.76059 13.0337 3.37475 14.129 4.31816 14.7875C1.80451 15.655 0 18.042 0 20.8469V21.2648C0 21.2774 0.0126632 21.2901 0.0253265 21.2901H7.7689C7.72458 21.6383 7.69925 21.9992 7.69925 22.3601V22.7907C7.69925 24.6522 9.20617 26.1591 11.0677 26.1591H20.8817C22.7432 26.1591 24.2501 24.6522 24.2501 22.7907V22.3601C24.2501 21.9992 24.2248 21.6383 24.1805 21.2901H31.9747C31.9873 21.2901 32 21.2774 32 21.2648V20.8469C31.9873 18.0356 30.1892 15.6486 27.6755 14.7812ZM22.9395 11.7863C22.9395 10.3301 24.1235 9.14605 25.5797 9.14605C27.036 9.14605 28.22 10.3301 28.22 11.7863C28.22 13.2236 27.0613 14.395 25.6304 14.4266C25.6114 14.4266 25.5987 14.4266 25.5797 14.4266C25.5607 14.4266 25.5481 14.4266 25.5291 14.4266C24.0918 14.4013 22.9395 13.2299 22.9395 11.7863ZM12.3403 10.4694C12.3403 8.4749 13.9612 6.854 15.9557 6.854C17.9501 6.854 19.571 8.4749 19.571 10.4694C19.571 12.3942 18.0578 13.9707 16.1646 14.0784C16.095 14.0784 16.0253 14.0784 15.9557 14.0784C15.886 14.0784 15.8164 14.0784 15.7467 14.0784C13.8536 13.9707 12.3403 12.3942 12.3403 10.4694ZM3.75465 11.7863C3.75465 10.3301 4.93866 9.14605 6.39494 9.14605C7.85121 9.14605 9.03522 10.3301 9.03522 11.7863C9.03522 13.2236 7.87653 14.395 6.44559 14.4266C6.42659 14.4266 6.41393 14.4266 6.39494 14.4266C6.37594 14.4266 6.36328 14.4266 6.34428 14.4266C4.91334 14.4013 3.75465 13.2299 3.75465 11.7863ZM7.94618 20.2707H1.02572C1.31065 17.5734 3.59003 15.4587 6.35695 15.4397C6.36961 15.4397 6.38227 15.4397 6.39494 15.4397C6.4076 15.4397 6.42026 15.4397 6.43292 15.4397C7.7499 15.446 8.95291 15.9335 9.88366 16.725C8.9719 17.7127 8.29442 18.9284 7.94618 20.2707ZM23.2244 22.7907C23.2244 24.0887 22.167 25.146 20.869 25.146H11.055C9.75702 25.146 8.69964 24.0887 8.69964 22.7907V22.3601C8.69964 18.4282 11.8401 15.2117 15.7467 15.0978C15.8164 15.1041 15.8924 15.1041 15.962 15.1041C16.0317 15.1041 16.1076 15.1041 16.1773 15.0978C20.0839 15.2117 23.2244 18.4282 23.2244 22.3601V22.7907ZM23.9778 20.2707C23.6296 18.9347 22.9648 17.7381 22.0594 16.7503C22.9964 15.9399 24.2121 15.4523 25.5417 15.4397C25.5544 15.4397 25.5671 15.4397 25.5797 15.4397C25.5924 15.4397 25.6051 15.4397 25.6177 15.4397C28.3846 15.4587 30.664 17.5734 30.949 20.2707H23.9778Z" fill="#214D71"/>
</svg>
