<svg width="24" height="24" viewBox="0 0 24 24" fill="none" xmlns="http://www.w3.org/2000/svg">
<path d="M11.6324 16.0884C10.9462 16.0884 10.3906 16.6603 10.3906 17.3465C10.3906 18.0164 10.9298 18.6046 11.6324 18.6046C12.335 18.6046 12.8905 18.0164 12.8905 17.3465C12.8905 16.6603 12.3187 16.0884 11.6324 16.0884Z" fill="white"/>
<path d="M11.8448 6.5625C9.63899 6.5625 8.62598 7.86961 8.62598 8.75194C8.62598 9.3892 9.16513 9.68329 9.60632 9.68329C10.4886 9.68329 10.1292 8.42517 11.7958 8.42517C12.6127 8.42517 13.2663 8.78465 13.2663 9.53625C13.2663 10.4186 12.3513 10.9251 11.8121 11.3826C11.3383 11.7911 10.7174 12.461 10.7174 13.8662C10.7174 14.7158 10.9461 14.9609 11.616 14.9609C12.4167 14.9609 12.58 14.6015 12.58 14.291C12.58 13.4414 12.5964 12.9512 13.4951 12.2486C13.9362 11.9055 15.3251 10.7944 15.3251 9.25851C15.3251 7.72261 13.9362 6.5625 11.8448 6.5625Z" fill="white"/>
<path d="M12 0C5.36794 0 0 5.36705 0 12V23.0625C0 23.5803 0.419719 24 0.9375 24H12C18.632 24 24 18.633 24 12C24 5.36794 18.633 0 12 0ZM12 22.125H1.875V12C1.875 6.4042 6.40345 1.875 12 1.875C17.5958 1.875 22.125 6.40345 22.125 12C22.125 17.5958 17.5965 22.125 12 22.125Z" fill="white"/>
</svg>
