<svg width="30" height="30" viewBox="0 0 30 30" fill="none" xmlns="http://www.w3.org/2000/svg">
<path d="M27.4113 25.3038L25.2638 21.7263C24.2738 20.075 23.75 18.185 23.75 16.2588V13.125C23.75 8.30125 19.8238 4.375 15.0001 4.375C10.1763 4.375 6.25008 8.30125 6.25008 13.125V16.2588C6.25008 18.185 5.72631 20.075 4.73631 21.7263L2.58879 25.3038C2.47254 25.4962 2.47002 25.7375 2.58006 25.9325C2.69133 26.1287 2.90004 26.25 3.12504 26.25H26.875C27.1 26.25 27.3088 26.1288 27.42 25.9325C27.53 25.7375 27.5276 25.4962 27.4113 25.3038ZM4.22883 25L5.80758 22.3687C6.91506 20.5237 7.50006 18.4113 7.50006 16.2588V13.125C7.50006 8.98873 10.8638 5.62498 15.0001 5.62498C19.1363 5.62498 22.5001 8.98873 22.5001 13.125V16.2588C22.5001 18.4113 23.0851 20.5237 24.1913 22.3687L25.7713 25H4.22883Z" fill="#214D71"/>
<path d="M15 0C13.6213 0 12.5 1.12125 12.5 2.50002V5.00004C12.5 5.34498 12.78 5.625 13.125 5.625C13.47 5.625 13.75 5.34498 13.75 4.99998V2.50002C13.75 1.81002 14.31 1.25004 15 1.25004C15.69 1.25004 16.25 1.81002 16.25 2.50002V5.00004C16.25 5.34498 16.53 5.625 16.875 5.625C17.22 5.625 17.5001 5.34498 17.5001 4.99998V2.50002C17.5001 1.12125 16.3788 0 15 0Z" fill="#214D71"/>
<path d="M17.705 25.3087C17.5288 25.0112 17.1475 24.9137 16.8488 25.085C16.55 25.26 16.45 25.6437 16.625 25.9412C16.7875 26.2175 16.8763 26.5487 16.8763 26.8749C16.8763 27.9087 16.035 28.7499 15.0013 28.7499C13.9675 28.7499 13.1263 27.9087 13.1263 26.8749C13.1263 26.5487 13.215 26.2175 13.3775 25.9412C13.5512 25.6424 13.4513 25.2599 13.1537 25.085C12.8525 24.9137 12.4725 25.0112 12.2975 25.3087C12.0212 25.7812 11.875 26.3225 11.875 26.875C11.8751 28.5987 13.2763 30 15 30C16.7238 30 18.125 28.5987 18.1275 26.875C18.1275 26.3225 17.9813 25.7812 17.705 25.3087Z" fill="#214D71"/>
</svg>
