<svg width="16" height="16" viewBox="0 0 16 16" fill="none" xmlns="http://www.w3.org/2000/svg">
<path d="M8 16C3.58862 16 0 12.4114 0 8C0 3.58862 3.58862 0 8 0C12.4114 0 16 3.58862 16 8C16 12.4114 12.4114 16 8 16ZM8 1C4.14001 1 1 4.14001 1 8C1 11.86 4.14001 15 8 15C11.86 15 15 11.86 15 8C15 4.14001 11.86 1 8 1Z" fill="#4E7693"/>
<path d="M5.52551 10.9746C5.39746 10.9746 5.26941 10.926 5.17212 10.828C4.97681 10.6327 4.97681 10.316 5.17212 10.1207L10.1221 5.17065C10.3175 4.97534 10.6342 4.97534 10.8295 5.17065C11.0248 5.36597 11.0248 5.68262 10.8295 5.87805L5.87939 10.828C5.78076 10.926 5.65283 10.9746 5.52551 10.9746Z" fill="#4E7693"/>
<path d="M10.4747 10.9746C10.3468 10.9746 10.2187 10.926 10.1214 10.828L5.17148 5.87863C4.97604 5.68332 4.97604 5.36667 5.17148 5.17136C5.36679 4.97592 5.68344 4.97592 5.87875 5.17136L10.8287 10.1213C11.0241 10.3166 11.0241 10.6333 10.8287 10.8286C10.7308 10.926 10.6028 10.9746 10.4747 10.9746Z" fill="#4E7693"/>
</svg>
