<svg width="18" height="18" viewBox="0 0 18 18" fill="none" xmlns="http://www.w3.org/2000/svg">
<g clip-path="url(#clip0)">
<path d="M6.6322 9.48828C5.5882 9.48828 4.74146 10.335 4.74146 11.379V16.1085C4.74146 17.1525 5.5882 17.9993 6.6322 17.9993C7.6762 17.9993 8.52295 17.1525 8.52295 16.1085V11.379C8.5222 10.335 7.67545 9.48828 6.6322 9.48828Z" fill="#E91E63"/>
<path d="M0.0141602 11.3791C0.0141602 12.4238 0.86166 13.2713 1.90641 13.2713C2.95116 13.2713 3.79866 12.4238 3.79866 11.3791V9.48682H1.90791C1.90716 9.48682 1.90716 9.48682 1.90641 9.48682C0.86166 9.48682 0.0141602 10.3343 0.0141602 11.3791Z" fill="#E91E63"/>
<path d="M6.63449 -0.000732422C6.63374 -0.000732422 6.63299 -0.000732422 6.63224 -0.000732422C5.58749 -0.000732422 4.73999 0.846768 4.73999 1.89152C4.73999 2.93627 5.58749 3.78377 6.63224 3.78377H8.52299V1.89152C8.52299 1.89077 8.52299 1.88927 8.52299 1.88777C8.52224 0.844517 7.67699 -0.000732422 6.63449 -0.000732422Z" fill="#00BCD4"/>
<path d="M1.89371 8.52742H6.63221C7.67696 8.52742 8.52446 7.67992 8.52446 6.63517C8.52446 5.59042 7.67696 4.74292 6.63221 4.74292H1.89371C0.848965 4.74292 0.00146484 5.59042 0.00146484 6.63517C0.00146484 7.67992 0.848965 8.52742 1.89371 8.52742Z" fill="#00BCD4"/>
<path d="M16.0928 4.74219C15.0496 4.74219 14.2043 5.58744 14.2043 6.63069V6.63444V8.52669H16.0951C17.1398 8.52669 17.9873 7.67919 17.9873 6.63444C17.9873 5.58969 17.1398 4.74219 16.0951 4.74219C16.0943 4.74219 16.0936 4.74219 16.0928 4.74219Z" fill="#4CAF50"/>
<path d="M9.48071 1.89148V6.63523C9.48071 7.67923 10.3275 8.52598 11.3715 8.52598C12.4155 8.52598 13.2622 7.67923 13.2622 6.63523V1.89148C13.2622 0.847483 12.4155 0.000732422 11.3715 0.000732422C10.3275 0.000732422 9.48071 0.847483 9.48071 1.89148Z" fill="#4CAF50"/>
<path d="M13.2615 16.1071C13.2615 15.0631 12.4147 14.2163 11.3707 14.2163H9.47998V16.1086C9.48073 17.1518 10.3267 17.9978 11.3707 17.9978C12.4147 17.9978 13.2615 17.1511 13.2615 16.1071Z" fill="#FF9800"/>
<path d="M16.1093 9.48682H11.3708C10.326 9.48682 9.47852 10.3343 9.47852 11.3791C9.47852 12.4238 10.326 13.2713 11.3708 13.2713H16.1093C17.154 13.2713 18.0015 12.4238 18.0015 11.3791C18.0015 10.3343 17.154 9.48682 16.1093 9.48682Z" fill="#FF9800"/>
</g>
<defs>
<clipPath id="clip0">
<rect width="18" height="18" fill="white"/>
</clipPath>
</defs>
</svg>
